<mxfile host="app.diagrams.net" modified="2023-04-30T06:13:18.321Z" agent="Mozilla/5.0 (Windows NT 10.0; Win64; x64) AppleWebKit/537.36 (KHTML, like Gecko) Chrome/112.0.0.0 Safari/537.36" version="21.2.3" etag="gX6l4R0mxZ4AYXi2jR8D" type="github">
  <diagram name="Sayfa -1" id="EDTAJLQwC0v0kc9jRyZK">
    <mxGraphModel>
      <root>
        <mxCell id="0" />
        <mxCell id="1" parent="0" />
      </root>
    </mxGraphModel>
  </diagram>
</mxfile>
